# xmcd CD database file
#
# Track frame offsets:
#	150
#	24163
#	45091
#	66990
#	76417
#	98607
#	124815
#	136911
#	157328
#
# Disc length: 2498 seconds
#
# Revision: 2
# Processed by: cddbd v1.5.1PL2 Copyright (c) Steve Scherf et al.
# Submitted via: CDex 1.51
#
DISCID=6a09c009
DTITLE=Hearse - The Last Ordeal
DYEAR=2005
DGENRE=Death Metal
TTITLE0=Pathfinder
TTITLE1=Quintessence
TTITLE2=Shackles Of Guilt
TTITLE3=Ambrosia
TTITLE4=Una Lucha A Muerte
TTITLE5=Bountyhunter
TTITLE6=Demon Curd
TTITLE7=Aggravation
TTITLE8=The Last Ordeal
EXTD=YEAR: 2005
EXTT0=
EXTT1=
EXTT2=
EXTT3=
EXTT4=
EXTT5=
EXTT6=
EXTT7=
EXTT8=
PLAYORDER=
